HIERARCHY
ROOT hip
{
  OFFSET 0 0 0
  CHANNELS 6 Xposition Yposition Zposition Zrotation Yrotation Xrotation
  JOINT abdomen
  {
    OFFSET 0 20.6881 -0.73152
    CHANNELS 3 Zrotation Xrotation Yrotation
    JOINT chest
    {
      OFFSET 0 11.7043 -0.48768
      CHANNELS 3 Zrotation Xrotation Yrotation
      JOINT neck
      {
        OFFSET 0 22.1894 -2.19456
        CHANNELS 3 Zrotation Xrotation Yrotation
        JOINT head
        {
          OFFSET -0.24384 7.07133 1.2192
          CHANNELS 3 Zrotation Xrotation Yrotation
          JOINT leftEye
          {
            OFFSET 4.14528 8.04674 8.04672
            CHANNELS 3 Zrotation Xrotation Yrotation
            End Site
            {
              OFFSET 1 0 0
            }
          }
          JOINT rightEye
          {
            OFFSET -3.6576 8.04674 8.04672
            CHANNELS 3 Zrotation Xrotation Yrotation
            End Site
            {
              OFFSET 1 0 0
            }
          }
        }
      }
      JOINT rCollar
      {
        OFFSET -2.68224 19.2634 -4.8768
        CHANNELS 3 Zrotation Xrotation Yrotation
        JOINT rShldr
        {
          OFFSET -8.77824 -1.95073 1.46304
          CHANNELS 3 Zrotation Xrotation Yrotation
          JOINT rForeArm
          {
            OFFSET -28.1742 -1.7115 0.48768
            CHANNELS 3 Zrotation Xrotation Yrotation
            JOINT rHand
            {
              OFFSET -22.5879 0.773209 7.07136
              CHANNELS 3 Zrotation Xrotation Yrotation
              JOINT rThumb1
              {
                OFFSET -1.2192 -0.487915 3.41376
                CHANNELS 3 Zrotation Xrotation Yrotation
                JOINT rThumb2
                {
                  OFFSET -3.37035 -0.52449 3.41376
                  CHANNELS 3 Zrotation Xrotation Yrotation
                  End Site
                  {
                    OFFSET -1.78271 -1.18214 1.43049
                  }
                }
              }
              JOINT rIndex1
              {
                OFFSET -7.75947 0.938293 5.60832
                CHANNELS 3 Zrotation Xrotation Yrotation
                JOINT rIndex2
                {
                  OFFSET -2.54057 -0.884171 1.56538
                  CHANNELS 3 Zrotation Xrotation Yrotation
                  End Site
                  {
                    OFFSET -1.62519 -0.234802 1.16502
                  }
                }
              }
              JOINT rMid1
              {
                OFFSET -8.24714 1.18213 3.41376
                CHANNELS 3 Zrotation Xrotation Yrotation
                JOINT rMid2
                {
                  OFFSET -3.10165 -0.590103 1.0647
                  CHANNELS 3 Zrotation Xrotation Yrotation
                  End Site
                  {
                    OFFSET -2.48547 -0.328903 0.83742
                  }
                }
              }
              JOINT rRing1
              {
                OFFSET -8.82822 0.546677 1.51678
                CHANNELS 3 Zrotation Xrotation Yrotation
                JOINT rRing2
                {
                  OFFSET -2.60934 -0.819778 -0.0198488
                  CHANNELS 3 Zrotation Xrotation Yrotation
                  End Site
                  {
                    OFFSET -2.33842 -0.294052 0.168128
                  }
                }
              }
              JOINT rPinky1
              {
                OFFSET -8.27202 -0.0477905 -0.4584
                CHANNELS 3 Zrotation Xrotation Yrotation
                JOINT rPinky2
                {
                  OFFSET -1.82734 -0.647385 -0.700984
                  CHANNELS 3 Zrotation Xrotation Yrotation
                  End Site
                  {
                    OFFSET -1.69225 -0.51767 -0.607171
                  }
                }
              }
            }
          }
        }
      }
      JOINT lCollar
      {
        OFFSET 2.68224 19.2634 -4.8768
        CHANNELS 3 Zrotation Xrotation Yrotation
        JOINT lShldr
        {
          OFFSET 8.77824 -1.95073 1.46304
          CHANNELS 3 Zrotation Xrotation Yrotation
          JOINT lForeArm
          {
            OFFSET 28.1742 -1.7115 0.48768
            CHANNELS 3 Zrotation Xrotation Yrotation
            JOINT lHand
            {
              OFFSET 22.5879 0.773209 7.07136
              CHANNELS 3 Zrotation Xrotation Yrotation
              JOINT lThumb1
              {
                OFFSET 1.2192 -0.487915 3.41376
                CHANNELS 3 Zrotation Xrotation Yrotation
                JOINT lThumb2
                {
                  OFFSET 3.37035 -0.52449 3.41376
                  CHANNELS 3 Zrotation Xrotation Yrotation
                  End Site
                  {
                    OFFSET 1.78271 -1.18214 1.43049
                  }
                }
              }
              JOINT lIndex1
              {
                OFFSET 7.75947 0.938293 5.60832
                CHANNELS 3 Zrotation Xrotation Yrotation
                JOINT lIndex2
                {
                  OFFSET 2.54057 -0.884171 1.56538
                  CHANNELS 3 Zrotation Xrotation Yrotation
                  End Site
                  {
                    OFFSET 1.62519 -0.234802 1.16502
                  }
                }
              }
              JOINT lMid1
              {
                OFFSET 8.24714 1.18213 3.41376
                CHANNELS 3 Zrotation Xrotation Yrotation
                JOINT lMid2
                {
                  OFFSET 3.10165 -0.590103 1.0647
                  CHANNELS 3 Zrotation Xrotation Yrotation
                  End Site
                  {
                    OFFSET 2.48547 -0.328903 0.83742
                  }
                }
              }
              JOINT lRing1
              {
                OFFSET 8.82822 0.546677 1.51678
                CHANNELS 3 Zrotation Xrotation Yrotation
                JOINT lRing2
                {
                  OFFSET 2.60934 -0.819778 -0.0198488
                  CHANNELS 3 Zrotation Xrotation Yrotation
                  End Site
                  {
                    OFFSET 2.33842 -0.294052 0.168128
                  }
                }
              }
              JOINT lPinky1
              {
                OFFSET 8.27202 -0.0477905 -0.4584
                CHANNELS 3 Zrotation Xrotation Yrotation
                JOINT lPinky2
                {
                  OFFSET 1.82734 -0.647385 -0.700984
                  CHANNELS 3 Zrotation Xrotation Yrotation
                  End Site
                  {
                    OFFSET 1.69225 -0.51767 -0.607171
                  }
                }
              }
            }
          }
        }
      }
    }
  }
  JOINT rButtock
  {
    OFFSET -8.77824 4.35084 1.2192
    CHANNELS 3 Zrotation Xrotation Yrotation
    JOINT rThigh
    {
      OFFSET 0 -1.70687 -2.19456
      CHANNELS 3 Zrotation Xrotation Yrotation
      JOINT rShin
      {
        OFFSET 0 -36.8199 0.73152
        CHANNELS 3 Zrotation Xrotation Yrotation
        JOINT rFoot
        {
          OFFSET 0.73152 -45.1104 -5.12064
          CHANNELS 3 Zrotation Xrotation Yrotation
          End Site
          {
            OFFSET -1.1221 -3.69964 12.103
          }
        }
      }
    }
  }
  JOINT lButtock
  {
    OFFSET 8.77824 4.35084 1.2192
    CHANNELS 3 Zrotation Xrotation Yrotation
    JOINT lThigh
    {
      OFFSET 0 -1.70687 -2.19456
      CHANNELS 3 Zrotation Xrotation Yrotation
      JOINT lShin
      {
        OFFSET 0 -36.8199 0.73152
        CHANNELS 3 Zrotation Xrotation Yrotation
        JOINT lFoot
        {
          OFFSET -0.73152 -45.1104 -5.12064
          CHANNELS 3 Zrotation Xrotation Yrotation
          End Site
          {
            OFFSET 1.1221 -3.69964 12.103
          }
        }
      }
    }
  }
}
MOTION
Frames:	4
Frame Time:	0.03333
0.011043348670852804 62.309152024250025 0.11254065342832986 -2.599421501159668 -3.128638982772827 7.020993709564209 -2.7229537963867188 14.12082290649414 3.820948600769043 2.899813175201416 -9.411182403564453 1.4551193714141846 -5.192586421966553 14.566523551940918 -3.5902657508850098 9.172013282775879 -22.251676559448242 -5.212244510650635 -0.029703311622142792 0.005511792376637459 -0.019222509115934372 0.026283394545316696 0.027117272838950157 0.042317770421504974 0.21590526401996613 0.01773723214864731 -0.005828732158988714 46.354652404785156 39.83351135253906 17.57329750061035 -25.71305274963379 -26.017414093017578 68.01129150390625 -1.6119987964630127 -9.639802932739258 -1.6906836032867432 -0.02359565533697605 -0.026428334414958954 -0.0014014597982168198 0.031559281051158905 -0.04140900820493698 0.020529037341475487 -0.047042883932590485 0.040334608405828476 -0.01312911044806242 7.818239212036133 5.474244594573975 0.39461109042167664 -0.06781458109617233 0.25453102588653564 -0.09074660390615463 2.967273235321045 0.9308050274848938 0.018108591437339783 -0.003459018422290683 -0.024559851735830307 0.008493885397911072 10.24482250213623 0.8236039876937866 -0.07397352904081345 0.04838262125849724 0.04379451647400856 0.05560918524861336 2.244374990463257 -0.7545018196105957 -0.31963205337524414 0.07618547230958939 -0.010428941808640957 0.035377636551856995 -55.364994049072266 39.6506462097168 -25.043811798095703 24.901227951049805 -23.263147354125977 -64.61016082763672 1.9950928688049316 -14.120380401611328 2.133009672164917 0.027358250692486763 0.007418646011501551 -0.15422354638576508 -0.09023100137710571 0.01136743277311325 0.04586746543645859 -0.006108212284743786 -0.05312175303697586 0.13412296772003174 -7.798952102661133 5.334680557250977 -0.3343028724193573 0.02820938639342785 0.0010808405932039022 -0.004710161592811346 -2.975832223892212 1.03848397731781 -0.1708550900220871 -0.023280438035726547 0.0350816585123539 -0.010719935409724712 -10.308981895446777 0.6815661191940308 -0.06570563465356827 -0.054337259382009506 -0.038541506975889206 -0.1149011179804802 -2.2762649059295654 -0.7660742402076721 0.19296328723430634 -0.024138281121850014 -0.051685087382793427 0.058561086654663086 -24.50166130065918 -43.673789978027344 -18.68406105041504 -1.3606001138687134 65.56014251708984 2.839522123336792 -4.42689323425293 -11.966534614562988 -9.346512794494629 -0.008761517703533173 -0.02798623777925968 -0.0064030797220766544 29.627164840698242 -45.53740692138672 21.518573760986328 1.6958011388778687 65.86039733886719 -2.8070242404937744 4.824169158935547 -12.422019958496094 13.22516918182373
0.014975029672694285 62.51082701987299 0.2285102219025648 -3.1964704990386963 0.6663253307342529 10.479690551757812 -2.6810407638549805 14.571149826049805 3.824291229248047 2.605658769607544 -9.799881935119629 1.3151803016662598 -4.802302837371826 14.414288520812988 -3.5838193893432617 8.953872680664062 -21.820585250854492 -5.44200325012207 0.06583991646766663 -0.1352972537279129 -0.11967552453279495 0.10828232765197754 -0.028728947043418884 -0.043162450194358826 -0.15585580468177795 0.14538417756557465 0.16417425870895386 46.9307975769043 39.69281005859375 17.82246971130371 -25.767812728881836 -26.50887107849121 68.83502960205078 -1.5872136354446411 -11.460542678833008 -1.5719878673553467 0.16270630061626434 -0.12954320013523102 0.1486356556415558 0.059486858546733856 -0.11747600883245468 0.0002936932723969221 0.056745823472738266 0.14313744008541107 -0.05058549717068672 7.814852714538574 5.598272323608398 0.4303041100502014 -0.020669719204306602 0.014439156278967857 -0.1440717726945877 2.904524087905884 1.017288088798523 0.20645011961460114 0.155104860663414 0.007020522840321064 0.04442247375845909 10.266416549682617 0.6418769359588623 0.08529543876647949 0.15715956687927246 0.1049424260854721 0.12119849771261215 2.209906578063965 -0.8605960011482239 -0.2195160835981369 0.1666833460330963 -0.08735433220863342 9.969703387469053e-05 -54.59099578857422 40.61747741699219 -26.450239181518555 24.814905166625977 -23.45025634765625 -65.93101501464844 1.9697368144989014 -14.29591178894043 2.1447665691375732 0.02677726186811924 -0.1630212664604187 0.07309854030609131 0.2209290862083435 0.08166968077421188 -0.13989518582820892 -0.14947955310344696 0.07960175722837448 -0.14332307875156403 -7.869460105895996 5.407238483428955 -0.3821212649345398 0.14948390424251556 0.07134347409009933 -0.028723599389195442 -2.905266523361206 0.8492273092269897 -0.22918207943439484 0.16242928802967072 -0.0023473864421248436 -0.040641553699970245 -10.113883972167969 0.9104345440864563 -0.1654367446899414 0.05592216178774834 -0.11252584308385849 -0.17346005141735077 -2.2606630325317383 -0.6401798129081726 0.21497373282909393 0.041069574654102325 -0.1773330718278885 0.09772756695747375 -25.384185791015625 -41.19127655029297 -19.22902488708496 -1.4614603519439697 64.21678161621094 2.3691964149475098 -4.65375280380249 -11.640680313110352 -9.689311027526855 -0.19365942478179932 -0.04488423094153404 0.045007795095443726 30.714570999145508 -42.28924560546875 21.150835037231445 1.7058405876159668 67.11839294433594 -2.729764223098755 5.180429935455322 -12.095399856567383 13.125295639038086
0.003999876171835826 67.3663743498892 -0.002445367805423237 5.220785617828369 1.4763286113739014 4.156231880187988 -10.367748260498047 17.540679931640625 4.526544094085693 3.4387712478637695 -9.81789493560791 1.2139848470687866 -7.784881114959717 16.47195053100586 -9.980887413024902 10.01085090637207 -25.683025360107422 -17.626380920410156 -0.09912510961294174 -0.3071024417877197 -0.2750887870788574 -0.1038801521062851 -0.017983125522732735 -0.14052890241146088 0.2457464039325714 0.10966702550649643 0.3169369697570801 29.301179885864258 12.47993278503418 42.483158111572266 -20.533750534057617 -12.834588050842285 44.83106231689453 -0.4805743396282196 14.151463508605957 2.27431583404541 -0.10809224843978882 -0.3758469223976135 0.09448135644197464 -0.23399445414543152 -0.24967113137245178 -0.22630539536476135 0.024855947121977806 0.13994909822940826 0.16641560196876526 7.795426368713379 5.736984729766846 0.4180119037628174 0.06490703672170639 -0.0521787628531456 -0.3974536061286926 3.190629005432129 0.9163979291915894 0.11026756465435028 -0.1857282966375351 0.07899636030197144 -0.1785132884979248 10.263999938964844 0.4904523491859436 -0.1786397099494934 0.26345452666282654 0.01259950827807188 -0.035827040672302246 2.181077480316162 -0.9992763996124268 -0.09663103520870209 0.1571851372718811 0.00934472493827343 0.16407226026058197 -79.27813720703125 56.653804779052734 6.485912799835205 27.72659683227539 -36.3033561706543 -79.46158599853516 3.145218849182129 -44.15831756591797 8.682208061218262 0.13172495365142822 -0.018640907481312752 -0.31342360377311707 -0.17327314615249634 -0.03510565310716629 -0.48940223455429077 0.14772199094295502 0.3570949137210846 0.3601795434951782 -8.040658950805664 5.461122035980225 -0.1182047575712204 0.3232588469982147 -0.11068017780780792 0.3070385158061981 -2.7569661140441895 0.9965040683746338 -0.12231049686670303 0.013520012609660625 -0.05592606961727142 0.11720636487007141 -10.080367088317871 0.5064014196395874 -0.1194080263376236 0.17069241404533386 -0.26450154185295105 -0.45521673560142517 -2.5578346252441406 -0.46066907048225403 0.21013811230659485 -0.12289063632488251 -0.07059052586555481 0.15617556869983673 -44.65671920776367 -59.176509857177734 -36.504215240478516 -3.6415700912475586 74.2068862915039 3.757730484008789 -0.0833619236946106 -1.9364159107208252 0.8437257409095764 0.08723238110542297 -0.651253342628479 0.20455238223075867 11.343932151794434 -15.415782928466797 5.846138000488281 0.44681596755981445 48.68081283569336 -2.7107150554656982 8.892056465148926 -13.89975643157959 25.644145965576172
-0.10011280406837432 67.54775685348807 -0.8494152918700382 172.2555694580078 -52.466304779052734 -169.8873291015625 -12.1616792678833 17.79692840576172 8.631403923034668 2.0025415420532227 -9.89948558807373 2.8725671768188477 -6.421824932098389 14.989145278930664 -7.133374214172363 9.236029624938965 -26.781330108642578 -12.467981338500977 -0.09650957584381104 -0.15784701704978943 -0.10897598415613174 -0.11364651471376419 -0.3287694752216339 -0.2764122486114502 -0.6075282692909241 -0.28695428371429443 -0.04287450388073921 13.67586612701416 -2.8098628520965576 56.25088119506836 -17.27851676940918 -8.13371467590332 31.134204864501953 -0.2688819468021393 20.14277458190918 3.043262004852295 0.3440828323364258 -0.6321096420288086 0.6583044528961182 -0.29794666171073914 0.2729996144771576 0.46812430024147034 1.170016884803772 -0.35905319452285767 -0.18461008369922638 8.217984199523926 5.724410533905029 1.0207462310791016 0.018898097798228264 0.36008232831954956 -0.04359407350420952 3.5750153064727783 0.8510682582855225 0.2593368887901306 0.3217161297798157 -0.1751784086227417 -0.1988929659128189 10.127120971679688 0.1958256959915161 0.3557061553001404 -0.11605383455753326 -0.5542622208595276 -0.22049672901630402 1.5301944017410278 -0.6989766359329224 0.21508096158504486 0.5361216068267822 -0.2592872083187103 0.7567650675773621 -89.63829803466797 55.18479919433594 20.93361473083496 27.91792869567871 -40.994873046875 -84.61125183105469 5.563685417175293 -55.090965270996094 12.714237213134766 0.1722664088010788 -0.5506084561347961 -0.1939331740140915 0.004781224764883518 -0.26622653007507324 -0.4356619417667389 -0.28287994861602783 0.7860699892044067 -0.657152533531189 -7.759210586547852 5.540692329406738 -0.3533964455127716 -0.16129375994205475 0.3222275972366333 -0.36225494742393494 -2.9464244842529297 0.6971114277839661 0.21119999885559082 -0.26121193170547485 -0.5700453519821167 0.37494978308677673 -10.098888397216797 0.7782611846923828 -0.20329071581363678 0.40491047501564026 -0.927526593208313 -0.47169455885887146 -1.6665294170379639 -0.6195849776268005 -0.23239949345588684 0.5064539313316345 -0.5224409103393555 -0.6377792358398438 -61.00465774536133 -65.7016830444336 -56.923370361328125 -7.424585819244385 78.86415100097656 7.442762851715088 -2.6102406978607178 -2.4225025177001953 -3.4225597381591797 -0.16480600833892822 -1.3578401803970337 -0.22458535432815552 7.100632190704346 -7.138839244842529 0.6715531349182129 0.4458385109901428 40.98136520385742 -2.5545578002929688 7.229492664337158 -10.05068588256836 26.381364822387695
